<svg xmlns="http://www.w3.org/2000/svg" id="Layer_2" width="724.54303" height="1000" version="1.1" viewBox="0 0 724.54304 999.99997"><defs id="defs1"><style>.cls-3{fill:#1e2c5d}</style></defs><g id="Layer_1-2"><path id="path1" d="M127.51 819.044c0-7.631-1.521-13.523-4.854-20.213h37.626c.434 0 .821.314.821.628v196.773s-.387.507-.821.507h-31.926c-.508 0-.821-.242-.821-.507V819.044Z" class="cls-3" style="fill:#fff;fill-opacity:1"/><path id="path2" d="M8.428 811.1v23.86h56.221c3.719 0 3.405 3.091 3.405 4.202 0 9.926-1.111 19.223-2.97 27.821H6.882v23.86h50.401C38.035 934.167.023 954.864.023 954.864l25.309 16.494c69.89-43.566 76.096-102.709 76.096-147.386v-12.896H8.452Z" class="cls-3" style="fill:#fff;fill-opacity:1"/><path id="path3" d="M303.684 969.954h-70.59v-20.817h70.59zm52.792-84.38H181.582c-.507 0-.869.242-.869.556v22.193s.386.483.869.483h68.151v17.413H196c3.477 6.81 4.975 12.823 4.975 20.503v45.353s.434.556.869.556h133.959c.507 0 .87-.242.87-.556v-65.374s-.435-.555-.87-.555h-48.034v-17.412h68.707c.434 0 .869-.242.869-.483v-22.194s-.362-.555-.869-.555z" class="cls-3" style="fill:#fff;fill-opacity:1"/><path id="path4" d="M567.834 826.892v-22.677s.242-.483.556-.483h96.092c.314 0 .556.241.556.483s-.749 28.183-6.835 57.694v.314l-.241 1.183h24.319s.555.241.555.507v22.411s-.241.507-.555.507H622.22v36.636s-.241.507-.555.507h-31.83s-.555-.193-.555-.507v-36.636h-31.83s-.555-.193-.555-.507v-22.411s.241-.507.555-.507h68.127l.314-.99c.942-3.115 3.96-14.659 5.144-33.351l.072-1.739H568.39s-.556-.241-.556-.507z" class="cls-3" style="fill:#fff;fill-opacity:1"/><path id="path5" d="M590.972 992.077v-36.298c0-7.631-1.377-13.62-4.661-20.406h36.78c.434 0 .797.241.797.627v33.327h99.811c.435 0 .797.314.797.628v22.049c0 .362-.362.628-.797.628H591.72c-.435 0-.797-.314-.797-.628l.073.073z" class="cls-3" style="fill:#fff;fill-opacity:1"/><path id="path6" d="M722.878 798.831c.434 0 .796.314.796.555v143.692s-.362.507-.796.507h-30.622c-.508 0-.821-.241-.821-.507v-21.952h-45.451c-.434 0-.796-.314-.796-.628v-22.073c0-.314.362-.628.796-.628h45.451v-78.68c0-7.656-1.498-13.548-4.782-20.286z" class="cls-3" style="fill:#fff;fill-opacity:1"/><path id="path7" d="M268.618 814.986c-15.021 0-27.169 8.887-27.169 19.803s12.148 19.803 27.169 19.803 27.169-8.887 27.169-19.803-12.148-19.803-27.169-19.803m64.19 19.827c0 23.957-28.786 43.349-64.19 43.349s-64.19-19.441-64.19-43.349 28.714-43.349 64.19-43.349 64.19 19.368 64.19 43.349" class="cls-3" style="fill:#fff;fill-opacity:1"/><path id="path8" d="M386.35 826.674v-22.508s.193-.434.434-.434h143.909s.435.193.435.434v22.508s-.193.435-.435.435h-51.246l3.043 2.777c19.779 18.016 56.463 27.265 60.616 28.255.314.121.628.314.677.363l-.387.796s-15.866 16.592-16.615 18.016c0 0-.072 0-.797-.12-1.618-.363-40.885-9.926-66.074-28.811l-1.183-.869-1.183.869c-24.947 18.619-64.577 28.376-66.244 28.811-.507.072-.555.072-.869-.242-.121-.241-.628-1.038-16.615-18.016.121.121-.121-.434-.121-.434 0-.121.363-.314.628-.363 4.154-.99 40.934-10.36 60.616-28.255l3.091-2.777h-51.246s-.434-.193-.434-.435" class="cls-3" style="fill:#fff;fill-opacity:1"/><path id="path9" d="M544.603 908.397c.435 0 .797-.265.797-.507v-22.652s-.362-.58-.797-.58H372.922c-.507 0-.869.314-.869.58v22.652s.362.507.869.507z" class="cls-3" style="fill:#fff;fill-opacity:1"/><path id="path10" d="M458.728 937.573c-15.287 0-27.652 8.718-27.652 19.489s12.365 19.489 27.652 19.489 27.651-8.718 27.651-19.489-12.364-19.489-27.651-19.489m64.601 19.489c0 23.691-28.956 42.938-64.601 42.938s-64.601-19.247-64.601-42.938 28.956-42.938 64.601-42.938 64.601 19.247 64.601 42.938" class="cls-3" style="fill:#fff;fill-opacity:1"/><path id="path11" d="M428.057 0 390.72 37.336h76.965l-76.95 76.941L276.49.023H.023v277.918l113.51 113.51L0 504.973v52.695l139.875-139.875 21.96 21.96L.024 601.574v52.67L188.182 466.1l21.941 21.941L0 698.171v26.349h26.348l210.127-210.127 21.931 21.931L70.23 724.494h52.644l161.86-161.846 21.949 21.95-139.903 139.896h52.696l113.554-113.549 113.526 113.526h277.94V448.053L610.218 333.77l76.94-76.936v76.941l37.335-37.336V0Zm188.947 37.31h43.832L487.305 210.85l-21.926-21.926Zm-96.647.003h43.905L439.018 162.56l-21.954-21.956Zm166.801 26.394v43.88L535.596 259.146l-21.936-21.938zm0 96.55v43.882L583.871 307.422l-21.943-21.945Z" style="fill:#fff;fill-opacity:1"/></g></svg>